<?xml version="1.0" encoding="UTF-8"?>
<svg width="512px" height="512px" viewBox="0 0 512 512" version="1.1" xmlns="http://www.w3.org/2000/svg" xmlns:xlink="http://www.w3.org/1999/xlink">
    <title>circle-xmark-solid</title>
    <g id="Page-1" stroke="none" stroke-width="1" fill="none" fill-rule="evenodd">
        <g id="circle-xmark-solid" fill="#FFFFFF" fill-rule="nonzero">
            <path d="M256,512 C397.4,512 512,397.4 512,256 C512,114.6 397.4,0 256,0 C114.6,0 0,114.6 0,256 C0,397.4 114.6,512 256,512 Z M175,175 C184.4,165.6 199.6,165.6 208.9,175 L255.9,222 L302.9,175 C312.3,165.6 327.5,165.6 336.8,175 C346.1,184.4 346.2,199.6 336.8,208.9 L289.8,255.9 L336.8,302.9 C346.2,312.3 346.2,327.5 336.8,336.8 C327.4,346.1 312.2,346.2 302.9,336.8 L255.9,289.8 L208.9,336.8 C199.5,346.2 184.3,346.2 175,336.8 C165.7,327.4 165.6,312.2 175,302.9 L222,255.9 L175,208.9 C165.6,199.5 165.6,184.3 175,175 L175,175 Z" id="Shape"></path>
        </g>
    </g>
</svg>
