<?xml version="1.0" encoding="UTF-8" standalone="no"?><!DOCTYPE svg PUBLIC "-//W3C//DTD SVG 1.1//EN" "http://www.w3.org/Graphics/SVG/1.1/DTD/svg11.dtd"><svg width="100%" height="100%" viewBox="0 0 24 24" version="1.1" xmlns="http://www.w3.org/2000/svg" xmlns:xlink="http://www.w3.org/1999/xlink" xml:space="preserve" xmlns:serif="http://www.serif.com/" style="fill-rule:evenodd;clip-rule:evenodd;stroke-linecap:round;stroke-linejoin:round;stroke-miterlimit:1.5;"><circle cx="12.001" cy="11.95" r="10.371" style="fill:#004c7e;"/><circle cx="12" cy="12" r="11" style="fill:#004c7e;fill-opacity:0;stroke:#004c7e;stroke-width:2px;"/><circle cx="12" cy="12" r="10.5" style="fill:#ebebeb;fill-opacity:0;"/><g><path d="M12,10.164c-0.725,0 -1.308,0.588 -1.308,1.314l-0,5.832c-0,0.726 0.583,1.314 1.308,1.314c0.725,-0 1.308,-0.588 1.308,-1.314l-0,-5.832c-0,-0.726 -0.583,-1.314 -1.308,-1.314Z" style="fill:#fff;fill-rule:nonzero;"/><path d="M12,11.01c-0.725,0 -1.308,0.588 -1.308,1.313l-0,5.833c-0,0.725 0.583,1.313 1.308,1.313c0.725,0 1.308,-0.588 1.308,-1.313l-0,-5.833c-0,-0.725 -0.583,-1.313 -1.308,-1.313Z" style="fill:#fff;fill-rule:nonzero;"/><path d="M12,4.304c-0.98,0 -1.774,0.794 -1.774,1.773c-0,0.98 0.794,1.774 1.774,1.774c0.979,-0 1.772,-0.794 1.772,-1.774c0,-0.979 -0.793,-1.773 -1.772,-1.773Z" style="fill:#fff;fill-rule:nonzero;"/></g><g><path d="M12,4.304c-0.98,0 -1.774,0.794 -1.774,1.773c-0,0.98 0.794,1.774 1.774,1.774c0.979,-0 1.772,-0.794 1.772,-1.774c0,-0.979 -0.793,-1.773 -1.772,-1.773Z" style="fill:#fff;fill-opacity:0;fill-rule:nonzero;"/></g></svg>
