<?xml version="1.0" encoding="UTF-8"?>
<svg width="512px" height="513px" viewBox="0 0 512 513" version="1.1" xmlns="http://www.w3.org/2000/svg" xmlns:xlink="http://www.w3.org/1999/xlink">
    <title>magnifying-glass-solid</title>
    <g id="Page-1" stroke="none" stroke-width="1" fill="none" fill-rule="evenodd">
        <g id="magnifying-glass-solid" fill="#FFFFFF" fill-rule="nonzero">
            <path d="M416,208 C416,253.9 401.1,296.3 376,330.7 L502.6,457.4 C515.1,469.9 515.1,490.2 502.6,502.7 C490.1,515.2 469.8,515.2 457.3,502.7 L330.7,376 C296.3,401.2 253.9,416 208,416 C93.1,416 0,322.9 0,208 C0,93.1 93.1,0 208,0 C322.9,0 416,93.1 416,208 Z M208,352 C287.5,352 352,287.5 352,208 C352,128.5 287.5,64 208,64 C128.5,64 64,128.5 64,208 C64,287.5 128.5,352 208,352 Z" id="Shape"></path>
        </g>
    </g>
</svg>
