<?xml version="1.0" encoding="UTF-8"?>
<svg width="512px" height="512px" viewBox="0 0 512 512" version="1.1" xmlns="http://www.w3.org/2000/svg" xmlns:xlink="http://www.w3.org/1999/xlink">
    <title>magnifying-glass-regular</title>
    <g id="Page-1" stroke="none" stroke-width="1" fill="none" fill-rule="evenodd">
        <g id="magnifying-glass-regular" transform="translate(-0.000200, 0.000000)" fill="#FFFFFF" fill-rule="nonzero">
            <path d="M504.1002,471 L370.1002,337 C399.1002,301.5 415.1002,256.8 415.1002,208 C415.1002,93.1 321.9702,0 207.1002,0 C92.2302,0 0,93.13 0,208 C0,322.87 93.1202,416 207.1002,416 C255.8902,416 300.6502,399.09 336.1002,370.96 L470.1002,504.96 C475.7002,509.7 481.9002,512 488.0002,512 C494.1002,512 500.2802,509.656 504.9702,504.969 C514.3002,495.6 514.3002,480.4 504.1002,471 Z M48.0002,208 C48.0002,119.78 119.7802,48 208.0002,48 C296.2202,48 368.0002,119.78 368.0002,208 C368.0002,296.22 296.2202,368 208.0002,368 C119.7802,368 48.0002,296.2 48.0002,208 Z" id="Shape"></path>
        </g>
    </g>
</svg>
