<?xml version="1.0" encoding="UTF-8" standalone="no"?>
<!DOCTYPE svg PUBLIC "-//W3C//DTD SVG 1.1//EN" "http://www.w3.org/Graphics/SVG/1.1/DTD/svg11.dtd">
<svg width="100%" height="100%" viewBox="0 0 591 378" version="1.1" xmlns="http://www.w3.org/2000/svg" xmlns:xlink="http://www.w3.org/1999/xlink" xml:space="preserve" xmlns:serif="http://www.serif.com/" style="fill-rule:evenodd;clip-rule:evenodd;stroke-linejoin:round;stroke-miterlimit:2;">
    <g id="grey" transform="matrix(0.141732,0,0,0.141732,0,-0.0048)">
        <rect x="0" y="0" width="4166.67" height="2666.67" style="fill:rgb(80,90,95);"/>
        <g>
            <clipPath id="_clip1">
                <rect x="0" y="0" width="4166.67" height="2666.67"/>
            </clipPath>
            <g clip-path="url(#_clip1)">
                <g transform="matrix(7.82988e-17,-1.27813,1.32571,8.11404e-17,678.983,4118.73)">
                    <path d="M2179.27,544.429L3222.46,2630.81L1136.08,2630.81L2179.27,544.429Z" style="fill:rgb(243,138,0);"/>
                </g>
                <g transform="matrix(1.28969,0,0,1,760.519,356.056)">
                    <rect x="322.088" y="800.615" width="348.645" height="354.659" style="fill:rgb(80,90,95);"/>
                </g>
                <g transform="matrix(5.32527,0.00665446,-0.00916614,7.33526,-7996.31,-13730.3)">
                    <path d="M2190.23,1985.38L2190.23,2087.28L2252.1,2087.28L2252.1,2118.13L2142.69,2118.13L2142.69,1985.38L2190.23,1985.38Z" style="fill:white;"/>
                </g>
                <g transform="matrix(1.13495,0.0131295,-0.0131295,1.13495,1164.17,-129.679)">
                    <path d="M540.778,1279.33C540.778,1312.67 547.074,1343.41 559.667,1371.56C572.259,1399.7 589.296,1424.15 610.778,1444.89C632.259,1465.63 657.259,1481.74 685.778,1493.22C714.296,1504.7 744.481,1510.44 776.333,1510.44C808.185,1510.44 838.37,1504.7 866.889,1493.22C895.407,1481.74 920.593,1465.63 942.444,1444.89C964.296,1424.15 981.519,1399.7 994.111,1371.56C1006.7,1343.41 1013,1312.67 1013,1279.33C1013,1246 1006.7,1215.26 994.111,1187.11C981.519,1158.96 964.296,1134.52 942.444,1113.78C920.593,1093.04 895.407,1076.93 866.889,1065.44C838.37,1053.96 808.185,1048.22 776.333,1048.22C744.481,1048.22 714.296,1053.96 685.778,1065.44C657.259,1076.93 632.259,1093.04 610.778,1113.78C589.296,1134.52 572.259,1158.96 559.667,1187.11C547.074,1215.26 540.778,1246 540.778,1279.33ZM313,1279.33C313,1217.11 324.481,1159.15 347.444,1105.44C370.407,1051.74 402.259,1004.89 443,964.889C483.741,924.889 532.444,893.593 589.111,871C645.778,848.407 708.185,837.111 776.333,837.111C843.741,837.111 905.963,848.407 963,871C1020.04,893.593 1069.11,924.889 1110.22,964.889C1151.33,1004.89 1183.37,1051.74 1206.33,1105.44C1229.3,1159.15 1240.78,1217.11 1240.78,1279.33C1240.78,1341.56 1229.3,1399.52 1206.33,1453.22C1183.37,1506.93 1151.33,1553.78 1110.22,1593.78C1069.11,1633.78 1020.04,1665.07 963,1687.67C905.963,1710.26 843.741,1721.56 776.333,1721.56C708.185,1721.56 645.778,1710.26 589.111,1687.67C532.444,1665.07 483.741,1633.78 443,1593.78C402.259,1553.78 370.407,1506.93 347.444,1453.22C324.481,1399.52 313,1341.56 313,1279.33Z" style="fill:white;fill-rule:nonzero;"/>
                </g>
                <g transform="matrix(1.16108,0,0,1.16108,1737.28,-1004.59)">
                    <path d="M1109.93,2068.85C1110.05,2062.53 1110.11,2056.25 1110.11,2050L1110.11,1594.44L1326.78,1594.44L1326.78,2080C1326.78,2210.37 1296.96,2305.56 1237.33,2365.56C1177.7,2425.56 1086.04,2455.56 962.333,2455.56C838.63,2455.56 771.755,2425.56 711.755,2365.56C691.566,2345.37 674.774,2321.2 661.379,2293.04L861.023,2211.24C876.299,2231.55 893.623,2246.67 917.681,2256.11C924.417,2258.76 931.511,2261.12 943.2,2263.57C952.397,2265.49 961.929,2266.5 971.696,2266.5C993.913,2266.5 1014.91,2261.27 1033.52,2251.97C1038.08,2249.9 1042.32,2247.58 1046.22,2245C1049.7,2242.7 1053.03,2240.28 1056.2,2237.73C1088.88,2212.52 1109.93,2173.04 1109.93,2128.7L1109.93,2068.85Z" style="fill:white;"/>
                </g>
            </g>
        </g>
    </g>
</svg>
