<?xml version="1.0" encoding="UTF-8" standalone="no"?>


<svg
   xmlns:dc="http://purl.org/dc/elements/1.1/"
   xmlns:cc="http://creativecommons.org/ns#"
   xmlns:rdf="http://www.w3.org/1999/02/22-rdf-syntax-ns#"
   xmlns:svg="http://www.w3.org/2000/svg"
   xmlns="http://www.w3.org/2000/svg"
   xmlns:sodipodi="http://sodipodi.sourceforge.net/DTD/sodipodi-0.dtd"
   xmlns:inkscape="http://www.inkscape.org/namespaces/inkscape"
   version="1.1"
   id="Layer_1"
   x="0px"
   y="0px"
   viewBox="0 0 249.93 34.32"
   xml:space="preserve"
   sodipodi:docname="tna-horizontal-white-logo.svg"
   width="249.92999"
   height="34.32"
   inkscape:version="0.92.2 5c3e80d, 2017-08-06"><metadata
     id="metadata59"><rdf:RDF><cc:Work
         rdf:about=""><dc:format>image/svg+xml</dc:format><dc:type
           rdf:resource="http://purl.org/dc/dcmitype/StillImage" /><dc:title /><cc:license
           rdf:resource="" /></cc:Work></rdf:RDF></metadata><defs
     id="defs57" /><sodipodi:namedview
     pagecolor="#ffffff"
     bordercolor="#666666"
     borderopacity="1"
     objecttolerance="10"
     gridtolerance="10"
     guidetolerance="10"
     inkscape:pageopacity="0"
     inkscape:pageshadow="2"
     inkscape:window-width="1427"
     inkscape:window-height="829"
     id="namedview55"
     showgrid="false"
     fit-margin-top="0"
     fit-margin-left="0"
     fit-margin-right="0"
     fit-margin-bottom="0"
     inkscape:pagecheckerboard="true"
     inkscape:zoom="2.9890888"
     inkscape:cx="-10.760025"
     inkscape:cy="3.6979952"
     inkscape:window-x="0"
     inkscape:window-y="0"
     inkscape:window-maximized="0"
     inkscape:current-layer="g52" /><style
     type="text/css"
     id="style2">
	.st0{fill:#FFFFFF;}
	.st1{fill:none;}
	.st2{fill:#FCFCFC;}
</style><g
     id="g52"><rect
       style="opacity:1;fill:#000000;fill-opacity:1;stroke:none;stroke-width:3.77952766;stroke-linecap:square;stroke-linejoin:miter;stroke-miterlimit:4;stroke-dasharray:none;stroke-dashoffset:19.37742043;stroke-opacity:1;paint-order:normal"
       id="rect1496"
       width="249.92999"
       height="34.32"
       x="0"
       y="0" /><path
       class="st0"
       d="M 1.17,1.17 H 49.75 V 33.14 H 1.17 Z M 0,0 v 33.14 1.17 H 50.92 V 33.14 0 Z"
       id="path4"
       inkscape:connector-curvature="0"
       style="fill:#ffffff" /><polygon
       class="st0"
       points="15.6,12.33 15.6,23.9 13.41,23.9 13.41,12.33 10.01,12.33 10.01,10.42 19,10.42 19,12.33 "
       id="polygon6"
       style="fill:#ffffff" /><polygon
       class="st0"
       points="29.48,10.42 29.48,23.9 27.29,23.9 27.29,18.04 22.05,18.04 22.05,23.9 19.86,23.9 19.86,10.42 22.05,10.42 22.05,16.1 27.29,16.1 27.29,10.42 "
       id="polygon8"
       style="fill:#ffffff" /><polygon
       class="st0"
       points="38.82,16.12 38.82,18.02 34.19,18.02 34.19,21.98 39.72,21.98 39.72,23.9 32,23.9 32,10.42 39.72,10.42 39.72,12.31 34.19,12.31 34.19,16.12 "
       id="polygon10"
       style="fill:#ffffff" /><path
       class="st0"
       d="m 50.91,1.17 h 49.75 48.58 V 33.14 H 50.91 Z M 49.74,0 V 1.17 34.31 H 150.41 V 0 Z"
       id="path12"
       inkscape:connector-curvature="0"
       style="fill:#ffffff" /><path
       class="st0"
       d="m 62.14,10.42 h 2.36 l 4.03,7.89 c 0.35,0.68 0.72,1.72 1.04,2.54 h 0.14 C 69.57,19.76 69.5,18.6 69.5,17.84 v -7.42 h 2.17 V 23.9 h -2.35 l -3.97,-7.75 c -0.43,-0.86 -0.74,-1.68 -1.09,-2.64 h -0.14 c 0.1,0.86 0.21,2.11 0.21,3.14 v 7.25 h -2.19 z"
       id="path14"
       inkscape:connector-curvature="0"
       style="fill:#ffffff" /><path
       class="st0"
       d="m 79.78,18.8 -1.06,-3.95 c -0.2,-0.7 -0.35,-1.39 -0.55,-2.38 h -0.12 c -0.19,0.98 -0.31,1.62 -0.53,2.38 l -1.07,3.95 z m -2.99,-8.38 h 2.66 l 3.89,13.48 h -2.23 l -0.92,-3.28 h -4.14 l -0.9,3.28 h -2.27 z"
       id="path16"
       inkscape:connector-curvature="0"
       style="fill:#ffffff" /><rect
       class="st1"
       width="249.92999"
       height="34.32"
       id="rect18"
       x="0"
       y="0"
       style="fill:none" /><polygon
       class="st0"
       points="87.89,12.33 87.89,23.9 85.7,23.9 85.7,12.33 82.3,12.33 82.3,10.42 91.29,10.42 91.29,12.33 "
       id="polygon20"
       style="fill:#ffffff" /><rect
       x="92.400002"
       y="10.42"
       class="st0"
       width="2.1900001"
       height="13.48"
       id="rect22"
       style="fill:#ffffff" /><path
       class="st0"
       d="m 104.8,17.18 c 0,-3.32 -1.04,-5.04 -3.03,-5.04 -2.01,0 -3.03,1.72 -3.03,5.04 0,3.3 1.02,5 3.03,5 2,0 3.03,-1.7 3.03,-5 m -8.36,0 c 0,-4.39 1.92,-6.95 5.34,-6.95 3.4,0 5.32,2.56 5.32,6.95 0,4.37 -1.92,6.91 -5.32,6.91 -3.43,0 -5.34,-2.54 -5.34,-6.91"
       id="path24"
       inkscape:connector-curvature="0"
       style="fill:#ffffff" /><path
       class="st0"
       d="m 109.06,10.42 h 2.36 l 4.03,7.89 c 0.35,0.68 0.72,1.72 1.04,2.54 h 0.14 c -0.14,-1.09 -0.21,-2.25 -0.21,-3.01 v -7.42 h 2.17 V 23.9 h -2.35 l -3.97,-7.75 c -0.43,-0.86 -0.74,-1.68 -1.09,-2.64 h -0.14 c 0.1,0.86 0.21,2.11 0.21,3.14 v 7.25 h -2.19 z"
       id="path26"
       inkscape:connector-curvature="0"
       style="fill:#ffffff" /><path
       class="st0"
       d="m 126.75,18.8 -1.06,-3.95 c -0.2,-0.7 -0.35,-1.39 -0.55,-2.38 h -0.12 c -0.2,0.98 -0.31,1.62 -0.53,2.38 l -1.07,3.95 z m -2.99,-8.38 h 2.66 l 3.89,13.48 h -2.23 l -0.92,-3.28 h -4.14 l -0.9,3.28 h -2.27 z"
       id="path28"
       inkscape:connector-curvature="0"
       style="fill:#ffffff" /><rect
       class="st1"
       width="249.92999"
       height="34.32"
       id="rect30"
       x="0"
       y="0"
       style="fill:none" /><polygon
       class="st0"
       points="131.49,23.9 131.49,10.42 133.68,10.42 133.68,21.98 138.94,21.98 138.94,23.9 "
       id="polygon32"
       style="fill:#ffffff" /><path
       class="st0"
       d="m 150.43,1.17 h 98.33 v 31.97 h -98.33 z m -1.18,33.15 H 249.92 V 0 H 149.25 Z"
       id="path34"
       inkscape:connector-curvature="0"
       style="fill:#ffffff" /><path
       class="st0"
       d="m 166.17,18.76 -1.06,-3.95 c -0.2,-0.7 -0.35,-1.39 -0.55,-2.38 h -0.12 c -0.2,0.98 -0.31,1.62 -0.53,2.38 l -1.07,3.95 z m -2.99,-8.38 h 2.66 l 3.89,13.48 h -2.23 l -0.92,-3.28 h -4.14 l -0.9,3.28 h -2.27 z"
       id="path36"
       inkscape:connector-curvature="0"
       style="fill:#ffffff" /><path
       class="st0"
       d="m 174.38,17.08 c 1.58,0 2.13,-1.02 2.13,-2.42 0,-1.37 -0.61,-2.42 -2.13,-2.42 h -1.68 v 4.84 z m -3.85,-6.7 h 4.03 c 2.85,0 4.22,1.54 4.22,4.14 0,1.95 -0.94,3.52 -2.33,3.94 v 0.12 c 0.64,0.72 2.5,4.75 3.01,4.96 v 0.31 h -2.36 c -0.63,-0.35 -2.29,-4.53 -2.8,-4.88 h -1.58 v 4.88 h -2.19 z"
       id="path38"
       inkscape:connector-curvature="0"
       style="fill:#ffffff" /><path
       class="st0"
       d="m 182.52,17.08 c 0,3.36 1.17,5.06 2.99,5.06 1.8,0 2.52,-1.27 2.5,-3.26 l 2.19,0.08 c 0.02,0.1 0.04,0.27 0.04,0.37 0,2.77 -1.35,4.73 -4.71,4.73 -3.24,0 -5.34,-2.44 -5.34,-6.97 0,-4.43 2.09,-6.89 5.34,-6.89 4.05,0 4.73,2.91 4.73,4.53 0,0.2 -0.02,0.45 -0.04,0.57 l -2.21,0.08 c 0.02,-2.07 -0.72,-3.26 -2.5,-3.26 -1.8,-0.02 -2.99,1.72 -2.99,4.96"
       id="path40"
       inkscape:connector-curvature="0"
       style="fill:#ffffff" /><polygon
       class="st0"
       points="201.64,10.38 201.64,23.86 199.45,23.86 199.45,18 194.22,18 194.22,23.86 192.03,23.86 192.03,10.38 194.22,10.38 194.22,16.06 199.45,16.06 199.45,10.38 "
       id="polygon42"
       style="fill:#ffffff" /><rect
       x="204.53999"
       y="10.38"
       class="st0"
       width="2.1900001"
       height="13.48"
       id="rect44"
       style="fill:#ffffff" /><path
       class="st0"
       d="m 208.5,10.38 h 2.29 l 2.03,7.75 c 0.31,1.21 0.49,2.28 0.7,3.53 h 0.16 c 0.22,-1.27 0.39,-2.32 0.7,-3.53 l 2.01,-7.75 h 2.29 l -3.81,13.48 h -2.56 z"
       id="path46"
       inkscape:connector-curvature="0"
       style="fill:#ffffff" /><polygon
       class="st2"
       points="227,16.08 227,17.98 222.37,17.98 222.37,21.94 227.9,21.94 227.9,23.86 220.18,23.86 220.18,10.38 227.9,10.38 227.9,12.28 222.37,12.28 222.37,16.08 "
       id="polygon48"
       style="fill:#fcfcfc" /><path
       class="st2"
       d="m 231.32,19.29 c -0.02,0.16 -0.04,0.33 -0.04,0.49 0,1.21 0.49,2.34 2.15,2.34 1.35,0 2.07,-0.74 2.07,-1.82 0,-0.98 -0.43,-1.54 -1.41,-1.89 l -2.17,-0.8 c -1.52,-0.57 -2.66,-1.54 -2.66,-3.61 0,-2.23 1.47,-3.81 4.16,-3.81 3.44,0 4.05,2.27 4.05,3.69 0,0.21 -0.02,0.45 -0.06,0.66 l -2.15,0.04 c 0.02,-0.14 0.04,-0.33 0.04,-0.47 0,-1.05 -0.37,-1.99 -1.92,-1.99 -1.31,0 -1.9,0.78 -1.9,1.78 0,1.09 0.59,1.56 1.39,1.86 l 2.21,0.8 c 1.66,0.61 2.68,1.66 2.68,3.63 0,2.27 -1.5,3.87 -4.4,3.87 -3.69,0 -4.3,-2.46 -4.3,-4.06 0,-0.19 0.02,-0.41 0.06,-0.62 z"
       id="path50"
       inkscape:connector-curvature="0"
       style="fill:#fcfcfc" /></g></svg>
