<?xml version="1.0" encoding="utf-8"?>
<!-- Generator: Adobe Illustrator 25.4.1, SVG Export Plug-In . SVG Version: 6.00 Build 0)  -->
<svg version="1.1" id="Layer_1" xmlns="http://www.w3.org/2000/svg" xmlns:xlink="http://www.w3.org/1999/xlink" x="0px" y="0px"
	 viewBox="0 0 249.9 34.5" style="enable-background:new 0 0 249.9 34.5;" xml:space="preserve">
<style type="text/css">
	.st0{fill:#222222;}
	.st1{fill:#FFFFFF;}
	.st2{fill:none;}
	.st3{fill:#FCFCFC;}
</style>
<rect class="st0" width="249.9" height="34.3"/>
<g>
	<path class="st1" d="M1.2,1.2h48.6v32H1.2V1.2z M0,0v33.1v1.2h50.9v-1.2V0H0z"/>
	<polygon class="st1" points="13.4,12.3 10,12.3 10,10.4 19,10.4 19,12.3 15.6,12.3 15.6,23.9 13.4,23.9 	"/>
	<polygon class="st1" points="19.9,10.4 22,10.4 22,16.1 27.3,16.1 27.3,10.4 29.5,10.4 29.5,23.9 27.3,23.9 27.3,18 22,18 22,23.9 
		19.9,23.9 	"/>
	<polygon class="st1" points="32,10.4 39.7,10.4 39.7,12.3 34.2,12.3 34.2,16.1 38.8,16.1 38.8,18 34.2,18 34.2,22 39.7,22 
		39.7,23.9 32,23.9 	"/>
	<path class="st1" d="M50.9,1.2h49.8h48.6v32H50.9V1.2z M49.7,0v1.2v33.1h100.7V0H49.7z"/>
	<path class="st1" d="M62.1,10.4h2.4l4,7.9c0.3,0.7,0.7,1.7,1,2.5h0.1c-0.1-1.1-0.2-2.2-0.2-3v-7.4h2.2v13.5h-2.3l-4-7.8
		c-0.4-0.9-0.7-1.7-1.1-2.6h-0.1c0.1,0.9,0.2,2.1,0.2,3.1v7.2h-2.2C62.1,23.9,62.1,10.4,62.1,10.4z"/>
	<path class="st1" d="M79.8,18.8l-1.1-3.9c-0.2-0.7-0.3-1.4-0.6-2.4H78c-0.2,1-0.3,1.6-0.5,2.4l-1.1,3.9H79.8z M76.8,10.4h2.7
		l3.9,13.5h-2.2l-0.9-3.3h-4.1l-0.9,3.3h-2.3L76.8,10.4z"/>
	<rect class="st2" width="249.9" height="34.3"/>
	<polygon class="st1" points="85.7,12.3 82.3,12.3 82.3,10.4 91.3,10.4 91.3,12.3 87.9,12.3 87.9,23.9 85.7,23.9 	"/>
	<rect x="92.4" y="10.4" class="st1" width="2.2" height="13.5"/>
	<path class="st1" d="M104.8,17.2c0-3.3-1-5-3-5c-2,0-3,1.7-3,5c0,3.3,1,5,3,5C103.8,22.2,104.8,20.5,104.8,17.2 M96.4,17.2
		c0-4.4,1.9-6.9,5.3-6.9c3.4,0,5.3,2.6,5.3,6.9c0,4.4-1.9,6.9-5.3,6.9C98.3,24.1,96.4,21.5,96.4,17.2"/>
	<path class="st1" d="M109.1,10.4h2.4l4,7.9c0.3,0.7,0.7,1.7,1,2.5h0.1c-0.1-1.1-0.2-2.2-0.2-3v-7.4h2.2v13.5h-2.3l-4-7.8
		c-0.4-0.9-0.7-1.7-1.1-2.6H111c0.1,0.9,0.2,2.1,0.2,3.1v7.2h-2.2V10.4z"/>
	<path class="st1" d="M126.8,18.8l-1.1-3.9c-0.2-0.7-0.3-1.4-0.6-2.4H125c-0.2,1-0.3,1.6-0.5,2.4l-1.1,3.9H126.8z M123.8,10.4h2.7
		l3.9,13.5h-2.2l-0.9-3.3H123l-0.9,3.3h-2.3L123.8,10.4z"/>
	<rect class="st2" width="249.9" height="34.3"/>
	<polygon class="st1" points="131.5,10.4 133.7,10.4 133.7,22 138.9,22 138.9,23.9 131.5,23.9 	"/>
	<path class="st1" d="M150.4,1.2h98.3v32h-98.3V1.2z M149.2,34.3h100.7V0H149.2V34.3z"/>
	<path class="st1" d="M166.2,18.8l-1.1-3.9c-0.2-0.7-0.4-1.4-0.6-2.4h-0.1c-0.2,1-0.3,1.6-0.5,2.4l-1.1,3.9H166.2z M163.2,10.4h2.7
		l3.9,13.5h-2.2l-0.9-3.3h-4.1l-0.9,3.3h-2.3L163.2,10.4z"/>
	<path class="st1" d="M174.4,17.1c1.6,0,2.1-1,2.1-2.4c0-1.4-0.6-2.4-2.1-2.4h-1.7v4.8H174.4z M170.5,10.4h4c2.9,0,4.2,1.5,4.2,4.1
		c0,2-0.9,3.5-2.3,3.9v0.1c0.6,0.7,2.5,4.8,3,5v0.3h-2.4c-0.6-0.4-2.3-4.5-2.8-4.9h-1.6v4.9h-2.2L170.5,10.4L170.5,10.4z"/>
	<path class="st1" d="M182.5,17.1c0,3.4,1.2,5.1,3,5.1c1.8,0,2.5-1.3,2.5-3.3l2.2,0.1c0,0.1,0,0.3,0,0.4c0,2.8-1.4,4.7-4.7,4.7
		c-3.2,0-5.3-2.4-5.3-7c0-4.4,2.1-6.9,5.3-6.9c4.1,0,4.7,2.9,4.7,4.5c0,0.2,0,0.4,0,0.6l-2.2,0.1c0-2.1-0.7-3.3-2.5-3.3
		C183.7,12.1,182.5,13.8,182.5,17.1"/>
	<polygon class="st1" points="192,10.4 194.2,10.4 194.2,16.1 199.4,16.1 199.4,10.4 201.6,10.4 201.6,23.9 199.4,23.9 199.4,18 
		194.2,18 194.2,23.9 192,23.9 	"/>
	<rect x="204.5" y="10.4" class="st1" width="2.2" height="13.5"/>
	<path class="st1" d="M208.5,10.4h2.3l2,7.8c0.3,1.2,0.5,2.3,0.7,3.5h0.2c0.2-1.3,0.4-2.3,0.7-3.5l2-7.8h2.3l-3.8,13.5h-2.6
		L208.5,10.4z"/>
	<polygon class="st3" points="220.2,10.4 227.9,10.4 227.9,12.3 222.4,12.3 222.4,16.1 227,16.1 227,18 222.4,18 222.4,21.9 
		227.9,21.9 227.9,23.9 220.2,23.9 	"/>
	<path class="st3" d="M231.3,19.3c0,0.2,0,0.3,0,0.5c0,1.2,0.5,2.3,2.1,2.3c1.4,0,2.1-0.7,2.1-1.8c0-1-0.4-1.5-1.4-1.9l-2.2-0.8
		c-1.5-0.6-2.7-1.5-2.7-3.6c0-2.2,1.5-3.8,4.2-3.8c3.4,0,4.1,2.3,4.1,3.7c0,0.2,0,0.4-0.1,0.7l-2.1,0c0-0.1,0-0.3,0-0.5
		c0-1.1-0.4-2-1.9-2c-1.3,0-1.9,0.8-1.9,1.8c0,1.1,0.6,1.6,1.4,1.9l2.2,0.8c1.7,0.6,2.7,1.7,2.7,3.6c0,2.3-1.5,3.9-4.4,3.9
		c-3.7,0-4.3-2.5-4.3-4.1c0-0.2,0-0.4,0.1-0.6L231.3,19.3z"/>
</g>
</svg>
