<svg id="Layer_1" data-name="Layer 1" xmlns="http://www.w3.org/2000/svg" viewBox="0 0 160 159.88"><defs><style>.cls-1{fill:#fff;}</style></defs><path class="cls-1" d="M21.86,127.27H178.13v50.81H21.86Zm0-52.68H178.13v50.82H21.86Zm0-52.67H99.07V72.73H21.86Zm79.07,0h77.2V72.73h-77.2Zm0-1.86H20V179.94H180V20.06Z" transform="translate(-20 -20.06)"/><polygon class="cls-1" points="21.32 19.55 15.91 19.55 15.91 16.51 30.2 16.51 30.2 19.55 24.8 19.55 24.8 37.93 21.32 37.93 21.32 19.55"/><polygon class="cls-1" points="31.56 16.51 35.04 16.51 35.04 25.54 43.37 25.54 43.37 16.51 46.85 16.51 46.85 37.93 43.37 37.93 43.37 28.62 35.04 28.62 35.04 37.93 31.56 37.93 31.56 16.51"/><polygon class="cls-1" points="50.86 16.51 63.13 16.51 63.13 19.52 54.34 19.52 54.34 25.57 61.7 25.57 61.7 28.59 54.34 28.59 54.34 34.89 63.13 34.89 63.13 37.93 50.86 37.93 50.86 16.51"/><path class="cls-1" d="M39.71,89.29h3.76l6.4,12.54c.56,1.09,1.15,2.73,1.65,4h.21a44.25,44.25,0,0,1-.34-4.78V89.29h3.45v21.42H51.11l-6.3-12.32a38.66,38.66,0,0,1-1.74-4.19h-.22a49.38,49.38,0,0,1,.34,5v11.52H39.71Z" transform="translate(-20 -20.06)"/><path class="cls-1" d="M67.75,102.61l-1.68-6.27c-.31-1.12-.56-2.21-.87-3.79H65c-.31,1.55-.5,2.58-.84,3.79l-1.71,6.27ZM63,89.29h4.23l6.18,21.42H69.86l-1.46-5.22H61.81l-1.43,5.22h-3.6Z" transform="translate(-20 -20.06)"/><polygon class="cls-1" points="57.16 72.28 51.75 72.28 51.75 69.23 66.04 69.23 66.04 72.28 60.63 72.28 60.63 90.65 57.16 90.65 57.16 72.28"/><rect class="cls-1" x="67.81" y="69.23" width="3.48" height="21.42"/><path class="cls-1" d="M107.52,100c0-5.28-1.65-8-4.81-8s-4.82,2.73-4.82,8,1.62,8,4.82,8,4.81-2.7,4.81-8m-13.29,0c0-7,3-11,8.48-11s8.44,4.07,8.44,11-3,11-8.44,11-8.48-4-8.48-11" transform="translate(-20 -20.06)"/><path class="cls-1" d="M114.28,89.29H118l6.4,12.54c.56,1.09,1.15,2.73,1.65,4h.22a41.82,41.82,0,0,1-.34-4.78V89.29h3.44v21.42h-3.72l-6.31-12.32a40.78,40.78,0,0,1-1.74-4.19h-.22a46.63,46.63,0,0,1,.34,5v11.52h-3.47Z" transform="translate(-20 -20.06)"/><path class="cls-1" d="M142.4,102.61l-1.68-6.27c-.31-1.12-.56-2.21-.87-3.79h-.19c-.31,1.55-.49,2.58-.84,3.79l-1.7,6.27Zm-4.76-13.32h4.23l6.18,21.42h-3.54l-1.46-5.22h-6.59L135,110.71h-3.6Z" transform="translate(-20 -20.06)"/><polygon class="cls-1" points="129.94 69.23 133.41 69.23 133.41 87.61 141.77 87.61 141.77 90.65 129.94 90.65 129.94 69.23"/><path class="cls-1" d="M46.88,155.22,45.2,149c-.31-1.12-.56-2.21-.87-3.79h-.19c-.31,1.55-.49,2.58-.83,3.79l-1.71,6.27ZM42.12,141.9h4.23l6.18,21.42H49l-1.46-5.21H40.94l-1.42,5.21H35.91Z" transform="translate(-20 -20.06)"/><path class="cls-1" d="M59.93,152.55c2.51,0,3.38-1.61,3.38-3.85s-1-3.85-3.38-3.85H57.26v7.7ZM53.81,141.9h6.4c4.53,0,6.71,2.46,6.71,6.58,0,3.11-1.49,5.59-3.7,6.27v.19c1,1.15,4,7.54,4.78,7.88v.5H64.25c-1-.56-3.64-7.2-4.45-7.76H57.29v7.76H53.81Z" transform="translate(-20 -20.06)"/><path class="cls-1" d="M72.87,152.55c0,5.34,1.86,8,4.75,8s4-2,4-5.18l3.48.12a3.8,3.8,0,0,1,.06.59c0,4.41-2.15,7.51-7.49,7.51-5.15,0-8.48-3.88-8.48-11.08s3.33-11,8.48-11c6.43,0,7.52,4.63,7.52,7.2a7,7,0,0,1-.06.9l-3.51.13c0-3.29-1.15-5.19-4-5.19s-4.75,2.77-4.75,7.92" transform="translate(-20 -20.06)"/><polygon class="cls-1" points="67.98 121.84 71.46 121.84 71.46 130.88 79.78 130.88 79.78 121.84 83.26 121.84 83.26 143.26 79.78 143.26 79.78 133.95 71.46 133.95 71.46 143.26 67.98 143.26 67.98 121.84"/><rect class="cls-1" x="87.86" y="121.84" width="3.48" height="21.42"/><path class="cls-1" d="M114.16,141.9h3.64L121,154.23c.49,1.92.77,3.63,1.12,5.61h.24c.35-2,.63-3.69,1.12-5.61l3.2-12.33h3.64l-6.06,21.42h-4.07Z" transform="translate(-20 -20.06)"/><polygon class="cls-1" points="112.72 121.84 124.99 121.84 124.99 124.86 116.2 124.86 116.2 130.91 123.56 130.91 123.56 133.92 116.2 133.92 116.2 140.22 124.99 140.22 124.99 143.26 112.72 143.26 112.72 121.84"/><path class="cls-1" d="M150.42,156.06a6.48,6.48,0,0,0-.06.77c0,1.93.78,3.73,3.42,3.73,2.14,0,3.29-1.18,3.29-2.89a2.89,2.89,0,0,0-2.24-3l-3.44-1.27c-2.43-.9-4.23-2.45-4.23-5.75,0-3.53,2.33-6,6.62-6,5.47,0,6.43,3.6,6.43,5.87a5.33,5.33,0,0,1-.1,1l-3.41.07a6.32,6.32,0,0,0,.06-.75c0-1.67-.59-3.16-3-3.16a2.68,2.68,0,0,0-3,2.82,2.88,2.88,0,0,0,2.21,2.95l3.51,1.27c2.64,1,4.25,2.64,4.25,5.77,0,3.61-2.39,6.15-7,6.15-5.88,0-6.84-3.91-6.84-6.46a5.78,5.78,0,0,1,.09-1Z" transform="translate(-20 -20.06)"/></svg>
